HIERARCHY
ROOT Hips
{
	OFFSET -0.001795 -0.223333 0.028219
	CHANNELS 6 Xposition Yposition Zposition Zrotation Yrotation Xrotation 
	JOINT LeftUpLeg
	{
		OFFSET 0.069520 -0.091406 -0.006815
		CHANNELS 3 Zrotation Yrotation Xrotation
		JOINT LeftLeg
		{
			OFFSET 0.034277 -0.375199 -0.004496
			CHANNELS 3 Zrotation Yrotation Xrotation
			JOINT LeftFoot
			{
				OFFSET -0.013596 -0.397961 -0.043693
				CHANNELS 3 Zrotation Yrotation Xrotation
				JOINT LeftToe
				{
					OFFSET 0.026358 -0.055791 0.119288
					CHANNELS 3 Zrotation Yrotation Xrotation
					End Site
					{
						OFFSET 0.000000 0.000000 0.000000
					}
				}
			}
		}
	}
	JOINT RightUpLeg
	{
		OFFSET -0.067670 -0.090522 -0.004320
		CHANNELS 3 Zrotation Yrotation Xrotation
		JOINT RightLeg
		{
			OFFSET -0.038290 -0.382569 -0.008850
			CHANNELS 3 Zrotation Yrotation Xrotation
			JOINT RightFoot
			{
				OFFSET 0.015774 -0.398415 -0.042312
				CHANNELS 3 Zrotation Yrotation Xrotation
				JOINT RightToe
				{
					OFFSET -0.025372 -0.048144 0.123348
					CHANNELS 3 Zrotation Yrotation Xrotation
					End Site
					{
						OFFSET 0.000000 0.000000 0.000000
					}
				}
			}
		}
	}
	JOINT Spine
	{
		OFFSET -0.002533 0.108963 -0.026696
		CHANNELS 3 Zrotation Yrotation Xrotation
		JOINT Spine1
		{
			OFFSET 0.005487 0.135180 0.001092
			CHANNELS 3 Zrotation Yrotation Xrotation
			JOINT Spine2
			{
				OFFSET 0.001457 0.052922 0.025425
				CHANNELS 3 Zrotation Yrotation Xrotation
				JOINT Neck
				{
					OFFSET -0.002778 0.213870 -0.042857
					CHANNELS 3 Zrotation Yrotation Xrotation
					JOINT Head
					{
						OFFSET 0.005152 0.064970 0.051349
						CHANNELS 3 Zrotation Yrotation Xrotation
						End Site
						{
							OFFSET 0.000000 0.000000 0.000000
						}
					}
				}
				JOINT LeftShoulder
				{
					OFFSET 0.078845 0.121749 -0.034090
					CHANNELS 3 Zrotation Yrotation Xrotation
					JOINT LeftArm
					{
						OFFSET 0.090977 0.030469 -0.008868
						CHANNELS 3 Zrotation Yrotation Xrotation
						JOINT LeftForeArm
						{
							OFFSET 0.259612 -0.012772 -0.027456
							CHANNELS 3 Zrotation Yrotation Xrotation
							JOINT LeftHand
							{
								OFFSET 0.249234 0.008986 -0.001171
								CHANNELS 3 Zrotation Yrotation Xrotation
								End Site
								{
									OFFSET 0.000000 0.000000 0.000000
								}
							}
						}
					}
				}
				JOINT RightShoulder
				{
					OFFSET -0.081759 0.118833 -0.038615
					CHANNELS 3 Zrotation Yrotation Xrotation
					JOINT RightArm
					{
						OFFSET -0.096012 0.032551 -0.009143
						CHANNELS 3 Zrotation Yrotation Xrotation
						JOINT RightForeArm
						{
							OFFSET -0.253742 -0.013329 -0.021401
							CHANNELS 3 Zrotation Yrotation Xrotation
							JOINT RightHand
							{
								OFFSET -0.255298 0.007772 -0.005559
								CHANNELS 3 Zrotation Yrotation Xrotation
								End Site
								{
									OFFSET 0.000000 0.000000 0.000000
								}
							}
						}
					}
				}
			}
		}
	}
}
MOTION
Frames: 8
Frame Time: 0.050000
-0.010783 0.633059 -0.165873 -2.461514 -0.783981 50.539434 18.350445 -3.608128 25.174873 -12.744410 -0.614065 -62.985869 34.197248 26.117355 102.589764 0.000000 0.000000 0.000000 -25.813128 6.875867 24.642801 18.695271 4.786153 -73.028211 -48.432543 -30.601954 104.409482 0.000000 0.000000 0.000000 0.857494 0.337349 -8.841335 -7.950397 0.574445 -72.703795 -1.449995 -2.412889 79.822325 17.868839 13.623151 -140.506808 0.000000 0.000000 0.000000 -16.784440 0.437724 2.046290 -38.299917 -16.896773 -8.512633 -64.897087 63.642503 -39.123093 0.000000 0.000000 0.000000 20.853959 -0.863076 -0.584956 34.959634 -1.731683 -10.787791 37.754657 -75.527118 -32.142774 0.000000 0.000000 0.000000 
-0.010998 0.632124 -0.166275 -2.420103 -0.571962 50.358394 18.835239 -3.812498 25.336628 -13.157247 -0.845003 -63.518072 36.468263 26.406859 103.319491 0.000000 0.000000 0.000000 -25.778786 6.788015 24.464447 19.247234 4.933481 -72.342109 -50.185634 -31.179118 104.150836 0.000000 0.000000 0.000000 1.061339 0.306624 -8.816355 -7.343499 0.657150 -72.420473 -1.630927 -2.043660 79.262390 19.963415 14.461449 -139.902405 0.000000 0.000000 0.000000 -16.562010 -0.453215 2.393372 -37.876599 -16.522829 -8.414216 -63.878161 63.566964 -38.794498 0.000000 0.000000 0.000000 20.690080 -0.098555 -0.038506 34.907594 -0.717943 -10.466403 43.870959 -75.605105 -37.119563 0.000000 0.000000 0.000000 
-0.011640 0.631548 -0.166592 -2.161578 -0.327236 50.291142 19.180308 -3.970161 25.197276 -13.605914 -1.128707 -63.778589 38.146346 26.633948 103.721294 0.000000 0.000000 0.000000 -25.421260 6.586998 24.409513 18.661264 4.516428 -72.394689 -51.367984 -31.158332 105.180823 0.000000 0.000000 0.000000 0.868884 0.320186 -8.829756 -7.313670 0.554793 -71.826049 -1.590243 -2.632190 78.501858 19.473230 14.466240 -139.887664 0.000000 0.000000 0.000000 -16.388882 -0.935904 2.661107 -37.802156 -16.826870 -8.210069 -63.541412 64.108996 -38.933688 0.000000 0.000000 0.000000 20.440412 0.550479 0.230557 35.214086 -0.050381 -10.270199 46.066218 -75.498793 -38.890117 0.000000 0.000000 0.000000 
-0.012460 0.631057 -0.166880 -2.164717 -0.392126 50.390835 19.527566 -4.082476 25.332612 -13.752118 -1.134445 -64.163240 38.863087 26.785620 103.777614 0.000000 0.000000 0.000000 -25.267191 6.524652 24.133574 18.416766 4.388684 -72.152115 -51.695279 -30.995692 105.896738 0.000000 0.000000 0.000000 0.852503 0.317540 -8.724234 -7.087998 0.632398 -72.096420 -1.674930 -2.840674 78.396851 13.592419 12.342997 -140.802727 0.000000 0.000000 0.000000 -15.928075 -1.485124 2.914494 -38.256545 -17.160766 -8.037481 -65.567359 64.827042 -40.732362 0.000000 0.000000 0.000000 19.854871 1.025577 0.437085 36.089120 1.306063 -10.110674 51.509199 -75.416161 -43.130041 0.000000 0.000000 0.000000 
-0.013147 0.630572 -0.167076 -2.414929 -0.839389 50.367903 19.377772 -3.947661 25.388876 -13.541748 -0.886684 -63.713820 39.014909 26.908529 103.620538 0.000000 0.000000 0.000000 -25.491900 6.643580 23.677087 18.419749 4.530284 -71.650926 -51.815627 -31.037636 105.795337 0.000000 0.000000 0.000000 0.603607 0.357125 -8.712024 -6.364997 0.934518 -71.126062 -1.750143 -2.900160 76.965590 11.846235 11.760007 -139.989132 0.000000 0.000000 0.000000 -15.678310 -1.839620 3.038039 -38.739150 -16.930733 -7.830353 -68.352508 65.469104 -43.306197 0.000000 0.000000 0.000000 19.550502 1.342328 0.460864 37.050899 1.891308 -9.973153 52.942233 -75.042501 -43.902411 0.000000 0.000000 0.000000 
-0.013526 0.630604 -0.167129 -2.766693 -1.245252 50.298117 19.163344 -3.799723 25.626582 -13.352788 -0.657990 -63.444737 39.034584 27.121355 102.889884 0.000000 0.000000 0.000000 -25.789174 6.782460 23.182029 18.591000 4.749898 -71.072814 -51.734253 -31.044653 105.634096 0.000000 0.000000 0.000000 0.604583 0.371649 -8.755479 -5.488774 1.275768 -70.856865 -1.886285 -2.665177 76.625893 8.923836 10.452219 -139.507723 0.000000 0.000000 0.000000 -15.613370 -2.166210 3.182840 -39.179059 -16.669991 -7.842373 -72.964559 66.554549 -47.712065 0.000000 0.000000 0.000000 19.341857 1.804912 0.705108 37.834379 2.346276 -10.022352 55.008567 -74.954314 -45.323064 0.000000 0.000000 0.000000 
-0.013698 0.630229 -0.167075 -2.896665 -1.537346 50.670382 19.057363 -3.714133 25.392097 -13.127085 -0.438923 -62.491622 37.341737 27.039101 101.884670 0.000000 0.000000 0.000000 -25.847659 6.828729 22.754631 18.310958 4.649762 -70.614933 -50.594813 -30.989674 104.912156 0.000000 0.000000 0.000000 0.594627 0.373480 -8.651763 -4.989799 1.480602 -70.371146 -2.156607 -2.753585 75.924570 7.204871 9.916295 -139.430283 0.000000 0.000000 0.000000 -15.687441 -2.129256 3.200811 -39.871193 -16.523494 -7.825929 -77.070766 66.572882 -50.743483 0.000000 0.000000 0.000000 19.092736 1.904394 0.632898 38.826486 2.601368 -10.074879 55.609317 -74.410633 -45.287797 0.000000 0.000000 0.000000 
-0.013738 0.630273 -0.166843 -3.351923 -2.181506 50.519149 18.729254 -3.487880 25.904119 -13.102448 -0.245335 -62.119181 36.399843 27.062776 101.046054 0.000000 0.000000 0.000000 -26.133745 7.018603 22.413071 18.107117 4.819114 -70.398239 -50.512048 -30.962842 104.730382 0.000000 0.000000 0.000000 0.782185 0.378244 -8.739038 -3.655299 1.976719 -70.260421 -2.567627 -1.756974 76.274693 10.417747 11.018085 -138.486783 0.000000 0.000000 0.000000 -15.703180 -1.930698 3.048509 -40.118291 -16.214692 -8.030539 -83.547680 66.092683 -55.654526 0.000000 0.000000 0.000000 19.518013 1.792360 0.683576 39.056387 2.455756 -10.314321 55.377843 -74.348419 -44.789119 0.000000 0.000000 0.000000 
